<?xml version="1.0" encoding="utf-8"?>
<!-- Generator: Adobe Illustrator 19.0.0, SVG Export Plug-In . SVG Version: 6.00 Build 0)  -->
<svg version="1.1" id="Layer_1" xmlns="http://www.w3.org/2000/svg" xmlns:xlink="http://www.w3.org/1999/xlink" x="0px" y="0px"
	 viewBox="-330 565.8 179.5 60.7" style="enable-background:new -330 565.8 179.5 60.7;" xml:space="preserve">
<style type="text/css">
	.st0{fill:#003874;}
	.st1{fill:#ED1C24;}
	.st2{fill:#FFFFFF;}
</style>
<g id="BACKGROUND">
</g>
<polygon class="st0" points="-330,626.5 -330,592.7 -151.1,592.7 -168.7,626.5 "/>
<polygon class="st1" points="-176.7,602.1 -330,602.1 -330,565.8 -156.5,565.8 "/>
<g>
	<path class="st2" d="M-318.5,608.7h6.8v1.8h-4.6v2.8h3.5v1.8h-3.5v4.7h-2.2C-318.5,619.8-318.5,608.7-318.5,608.7z"/>
	<path class="st2" d="M-307.9,619.7h-2.2v-8.8h2.2v1.4c0.5-0.9,1.5-1.5,2.7-1.5v2.3h-0.6c-1.3,0-2.1,0.5-2.1,2.2V619.7L-307.9,619.7
		z"/>
	<path class="st2" d="M-299.9,619.9c-2.5,0-4.4-1.8-4.4-4.5c0-2.8,1.8-4.5,4.4-4.5c2.5,0,4.3,1.7,4.3,4.3c0,0.3,0,0.6-0.1,0.8h-6.3
		c0.1,1.3,1,2,2.1,2c1,0,1.5-0.5,1.8-1.1h2.4C-296.3,618.6-297.7,619.9-299.9,619.9z M-302,614.5h4.2c0-1.2-1-1.9-2.1-1.9
		S-301.9,613.3-302,614.5z"/>
	<path class="st2" d="M-290.1,619.9c-2.5,0-4.4-1.8-4.4-4.5c0-2.8,1.8-4.5,4.4-4.5c2.5,0,4.3,1.7,4.3,4.3c0,0.3,0,0.6-0.1,0.8h-6.4
		c0.1,1.3,1,2,2.1,2c1,0,1.5-0.5,1.8-1.1h2.4C-286.5,618.6-288,619.9-290.1,619.9z M-292.3,614.5h4.2c0-1.2-1-1.9-2.1-1.9
		C-291.3,612.6-292.1,613.3-292.3,614.5z"/>
	<path class="st2" d="M-268.2,614.9c0-1.4-0.8-2.1-1.9-2.1c-1.2,0-2,0.7-2,2.1v4.8h-2.2v-4.8c0-1.4-0.8-2.1-1.9-2.1
		c-1.2,0-2,0.7-2,2.1v4.8h-2.2v-8.8h2.2v1.1c0.5-0.7,1.5-1.2,2.6-1.2c1.4,0,2.5,0.6,3.1,1.7c0.6-1,1.7-1.7,3-1.7
		c2.1,0,3.6,1.3,3.6,3.8v5.1h-2.2L-268.2,614.9L-268.2,614.9z"/>
	<path class="st2" d="M-260.1,619.9c-2.6,0-4.4-1.8-4.4-4.5c0-2.8,1.8-4.5,4.4-4.5c2.5,0,4.3,1.7,4.3,4.3c0,0.3,0,0.6-0.1,0.8h-6.4
		c0.1,1.3,1,2,2.1,2c0.9,0,1.5-0.5,1.8-1.1h2.4C-256.4,618.6-257.9,619.9-260.1,619.9z M-262.2,614.5h4.2c0-1.2-0.9-1.9-2.1-1.9
		C-261.2,612.6-262,613.3-262.2,614.5z"/>
	<path class="st2" d="M-250.7,610.8c1.4,0,2.4,0.7,2.9,1.4v-1.3h2.2v8.8h-2.2v-1.3c-0.5,0.8-1.5,1.4-2.9,1.4c-2.2,0-4-1.8-4-4.5
		S-252.9,610.8-250.7,610.8z M-250.1,612.8c-1.2,0-2.3,0.9-2.3,2.5c0,1.6,1.1,2.6,2.3,2.6c1.2,0,2.3-0.9,2.3-2.6
		S-248.9,612.8-250.1,612.8z"/>
	<path class="st2" d="M-243.4,608h2.2v11.7h-2.2V608z"/>
	<path class="st2" d="M-235.7,619.9c-2.2,0-3.7-1.3-3.8-2.9h2.2c0.1,0.7,0.7,1.2,1.6,1.2c0.9,0,1.3-0.4,1.3-0.9
		c0-1.6-4.9-0.6-4.9-3.8c0-1.5,1.3-2.6,3.5-2.6c2.1,0,3.4,1.2,3.5,2.9h-2.1c-0.1-0.7-0.6-1.1-1.5-1.1c-0.8,0-1.3,0.3-1.3,0.8
		c0,1.6,4.8,0.6,4.9,3.8C-232.2,618.7-233.5,619.9-235.7,619.9z"/>
	<path class="st2" d="M-223.3,619.9c-2.2,0-3.7-1.3-3.8-2.9h2.2c0.1,0.7,0.7,1.2,1.6,1.2c0.9,0,1.3-0.4,1.3-0.9
		c0-1.6-4.9-0.6-4.9-3.8c0-1.5,1.3-2.6,3.5-2.6c2.1,0,3.4,1.2,3.5,2.9h-2.1c-0.1-0.7-0.6-1.1-1.5-1.1c-0.8,0-1.3,0.3-1.3,0.8
		c0,1.6,4.8,0.6,4.9,3.8C-219.8,618.7-221.2,619.9-223.3,619.9z"/>
	<path class="st2" d="M-214.2,619.9c-2.6,0-4.4-1.8-4.4-4.5c0-2.8,1.8-4.5,4.4-4.5c2.5,0,4.3,1.7,4.3,4.3c0,0.3,0,0.6-0.1,0.8h-6.4
		c0.1,1.3,1,2,2.1,2c0.9,0,1.5-0.5,1.8-1.1h2.4C-210.6,618.6-212,619.9-214.2,619.9z M-216.3,614.5h4.2c0-1.2-0.9-1.9-2.1-1.9
		C-215.3,612.6-216.2,613.3-216.3,614.5z"/>
	<path class="st2" d="M-206.1,619.7h-2.2v-8.8h2.2v1.4c0.6-0.9,1.5-1.5,2.7-1.5v2.3h-0.6c-1.3,0-2.1,0.5-2.1,2.2V619.7L-206.1,619.7
		z"/>
	<path class="st2" d="M-200.4,611l2.2,6.7l2.2-6.7h2.4l-3.2,8.8h-2.7l-3.2-8.8H-200.4z"/>
	<path class="st2" d="M-188.6,619.9c-2.6,0-4.4-1.8-4.4-4.5c0-2.8,1.8-4.5,4.4-4.5c2.5,0,4.3,1.7,4.3,4.3c0,0.3,0,0.6-0.1,0.8h-6.4
		c0.1,1.3,1,2,2.1,2c0.9,0,1.5-0.5,1.8-1.1h2.4C-185,618.6-186.4,619.9-188.6,619.9z M-190.7,614.5h4.2c0-1.2-0.9-1.9-2.1-1.9
		C-189.7,612.6-190.5,613.3-190.7,614.5z"/>
	<path class="st2" d="M-179.2,610.8c1.1,0,2.3,0.5,2.9,1.4V608h2.2v11.7h-2.2v-1.3c-0.5,0.8-1.5,1.4-2.9,1.4c-2.2,0-4-1.8-4-4.5
		S-181.4,610.8-179.2,610.8z M-178.6,612.8c-1.2,0-2.3,0.9-2.3,2.5c0,1.6,1.1,2.6,2.3,2.6s2.3-0.9,2.3-2.6S-177.4,612.8-178.6,612.8
		z"/>
</g>
<g>
	<path class="st2" d="M-303.8,573.6v3.2l-6.4,14.9h-5.6l6.1-14h-4.8v2.8h-4.4v-6.8H-303.8z"/>
	<path class="st2" d="M-288.4,585.9c0,3.2-2.4,6.2-7.9,6.2c-2.5,0-5.2-0.6-7-1.8l1.8-3.9c1.5,1,3.3,1.5,5,1.5s2.9-0.7,2.9-1.9
		c0-1.1-0.7-1.8-3.5-1.8h-4.9l0.9-10.6h11.5v4h-7.3l-0.2,2.6h1.2C-290.5,580.2-288.4,582.7-288.4,585.9z"/>
	<path class="st2" d="M-281.2,589c0,0.7-0.1,1.3-0.9,3l-1.6,3.8h-3.1l1.2-4.2c-0.9-0.4-1.5-1.3-1.5-2.5c0-1.8,1.2-2.9,2.9-2.9
		C-282.5,586.2-281.2,587.3-281.2,589z"/>
	<path class="st2" d="M-265.4,587.7v4.1h-14.1v-3.2l6.8-6.3c1.4-1.3,1.7-2.2,1.7-2.9c0-1.2-0.8-1.9-2.3-1.9c-1.3,0-2.5,0.6-3.2,1.8
		l-3.8-2.1c1.4-2.3,3.9-3.8,7.5-3.8c4.2,0,7,2.1,7,5.5c0,1.8-0.5,3.4-3.1,5.7l-3.4,3.2H-265.4z"/>
	<path class="st2" d="M-256.1,573.6v18.1h-5.1v-14.1h-3.4v-4H-256.1z"/>
	<path class="st2" d="M-247.7,589c0,0.7-0.1,1.3-0.9,3l-1.6,3.8h-3.1l1.2-4.2c-0.9-0.4-1.5-1.3-1.5-2.5c0-1.8,1.2-2.9,2.9-2.9
		C-248.9,586.2-247.7,587.3-247.7,589z"/>
	<path class="st2" d="M-246.5,582.7c0-6,3.4-9.4,8-9.4c4.6,0,8,3.4,8,9.4c0,6-3.4,9.4-8,9.4C-243.1,592.1-246.5,588.7-246.5,582.7z
		 M-235.7,582.7c0-3.8-1.2-5.2-2.8-5.2c-1.7,0-2.8,1.4-2.8,5.2s1.2,5.2,2.8,5.2C-236.8,587.9-235.7,586.5-235.7,582.7z"/>
	<path class="st2" d="M-228.8,582.7c0-6,3.4-9.4,8-9.4c4.6,0,8,3.4,8,9.4c0,6-3.4,9.4-8,9.4C-225.4,592.1-228.8,588.7-228.8,582.7z
		 M-218,582.7c0-3.8-1.2-5.2-2.8-5.2c-1.7,0-2.8,1.4-2.8,5.2s1.2,5.2,2.8,5.2C-219.1,587.9-218,586.5-218,582.7z"/>
	<path class="st2" d="M-211.1,582.7c0-6,3.4-9.4,8-9.4c4.6,0,8,3.4,8,9.4c0,6-3.4,9.4-8,9.4C-207.7,592.1-211.1,588.7-211.1,582.7z
		 M-200.2,582.7c0-3.8-1.2-5.2-2.8-5.2c-1.7,0-2.8,1.4-2.8,5.2s1.2,5.2,2.8,5.2C-201.4,587.9-200.2,586.5-200.2,582.7z"/>
</g>
</svg>
