<?xml version="1.0" encoding="utf-8"?>
<!-- Generator: Adobe Illustrator 24.1.1, SVG Export Plug-In . SVG Version: 6.00 Build 0)  -->
<svg version="1.1" id="Layer_1" xmlns="http://www.w3.org/2000/svg" xmlns:xlink="http://www.w3.org/1999/xlink" x="0px" y="0px"
	 viewBox="0 0 179.5 60.7" style="enable-background:new 0 0 179.5 60.7;" xml:space="preserve">
<style type="text/css">
	.st0{fill:#003874;}
	.st1{fill:#ED1C24;}
	.st2{fill:#FFFFFF;}
</style>
<g id="BACKGROUND">
</g>
<g id="OBJECTS">
	<g>
		<polygon class="st0" points="0,60.7 0,26.9 178.9,26.9 161.3,60.7 		"/>
		<polygon class="st1" points="153.3,36.3 0,36.3 0,0 173.5,0 		"/>
		<g>
			<path class="st2" d="M11.5,42.9h6.8v1.8h-4.6v2.8h3.5v1.8h-3.5V54h-2.2C11.5,54,11.5,42.9,11.5,42.9z"/>
			<path class="st2" d="M22.1,53.9h-2.2v-8.8h2.2v1.4c0.5-0.9,1.5-1.5,2.7-1.5v2.3h-0.6c-1.3,0-2.1,0.5-2.1,2.2V53.9L22.1,53.9z"/>
			<path class="st2" d="M30.1,54.1c-2.5,0-4.4-1.8-4.4-4.5c0-2.8,1.8-4.5,4.4-4.5c2.5,0,4.3,1.7,4.3,4.3c0,0.3,0,0.6-0.1,0.8H28
				c0.1,1.3,1,2,2.1,2c1,0,1.5-0.5,1.8-1.1h2.4C33.7,52.8,32.3,54.1,30.1,54.1z M28,48.7h4.2c0-1.2-1-1.9-2.1-1.9S28.1,47.5,28,48.7
				z"/>
			<path class="st2" d="M39.9,54.1c-2.5,0-4.4-1.8-4.4-4.5c0-2.8,1.8-4.5,4.4-4.5c2.5,0,4.3,1.7,4.3,4.3c0,0.3,0,0.6-0.1,0.8h-6.4
				c0.1,1.3,1,2,2.1,2c1,0,1.5-0.5,1.8-1.1H44C43.5,52.8,42,54.1,39.9,54.1z M37.7,48.7h4.2c0-1.2-1-1.9-2.1-1.9
				C38.7,46.8,37.9,47.5,37.7,48.7z"/>
			<path class="st2" d="M61.8,49.1c0-1.4-0.8-2.1-1.9-2.1c-1.2,0-2,0.7-2,2.1v4.8h-2.2v-4.8c0-1.4-0.8-2.1-1.9-2.1
				c-1.2,0-2,0.7-2,2.1v4.8h-2.2v-8.8h2.2v1.1c0.5-0.7,1.5-1.2,2.6-1.2c1.4,0,2.5,0.6,3.1,1.7c0.6-1,1.7-1.7,3-1.7
				c2.1,0,3.6,1.3,3.6,3.8v5.1h-2.2L61.8,49.1L61.8,49.1z"/>
			<path class="st2" d="M69.9,54.1c-2.6,0-4.4-1.8-4.4-4.5c0-2.8,1.8-4.5,4.4-4.5c2.5,0,4.3,1.7,4.3,4.3c0,0.3,0,0.6-0.1,0.8h-6.4
				c0.1,1.3,1,2,2.1,2c0.9,0,1.5-0.5,1.8-1.1H74C73.6,52.8,72.1,54.1,69.9,54.1z M67.8,48.7H72c0-1.2-0.9-1.9-2.1-1.9
				C68.8,46.8,68,47.5,67.8,48.7z"/>
			<path class="st2" d="M79.3,45c1.4,0,2.4,0.7,2.9,1.4v-1.3h2.2v8.8h-2.2v-1.3c-0.5,0.8-1.5,1.4-2.9,1.4c-2.2,0-4-1.8-4-4.5
				C75.3,46.8,77.1,45,79.3,45z M79.9,47c-1.2,0-2.3,0.9-2.3,2.5s1.1,2.6,2.3,2.6c1.2,0,2.3-0.9,2.3-2.6S81.1,47,79.9,47z"/>
			<path class="st2" d="M86.6,42.2h2.2v11.7h-2.2V42.2z"/>
			<path class="st2" d="M94.3,54.1c-2.2,0-3.7-1.3-3.8-2.9h2.2c0.1,0.7,0.7,1.2,1.6,1.2s1.3-0.4,1.3-0.9c0-1.6-4.9-0.6-4.9-3.8
				c0-1.5,1.3-2.6,3.5-2.6c2.1,0,3.4,1.2,3.5,2.9h-2.1c-0.1-0.7-0.6-1.1-1.5-1.1c-0.8,0-1.3,0.3-1.3,0.8c0,1.6,4.8,0.6,4.9,3.8
				C97.8,52.9,96.5,54.1,94.3,54.1z"/>
			<path class="st2" d="M106.7,54.1c-2.2,0-3.7-1.3-3.8-2.9h2.2c0.1,0.7,0.7,1.2,1.6,1.2s1.3-0.4,1.3-0.9c0-1.6-4.9-0.6-4.9-3.8
				c0-1.5,1.3-2.6,3.5-2.6c2.1,0,3.4,1.2,3.5,2.9H108c-0.1-0.7-0.6-1.1-1.5-1.1c-0.8,0-1.3,0.3-1.3,0.8c0,1.6,4.8,0.6,4.9,3.8
				C110.2,52.9,108.8,54.1,106.7,54.1z"/>
			<path class="st2" d="M115.8,54.1c-2.6,0-4.4-1.8-4.4-4.5c0-2.8,1.8-4.5,4.4-4.5c2.5,0,4.3,1.7,4.3,4.3c0,0.3,0,0.6-0.1,0.8h-6.4
				c0.1,1.3,1,2,2.1,2c0.9,0,1.5-0.5,1.8-1.1h2.4C119.4,52.8,118,54.1,115.8,54.1z M113.7,48.7h4.2c0-1.2-0.9-1.9-2.1-1.9
				C114.7,46.8,113.8,47.5,113.7,48.7z"/>
			<path class="st2" d="M123.9,53.9h-2.2v-8.8h2.2v1.4c0.6-0.9,1.5-1.5,2.7-1.5v2.3H126c-1.3,0-2.1,0.5-2.1,2.2V53.9L123.9,53.9z"/>
			<path class="st2" d="M129.6,45.2l2.2,6.7l2.2-6.7h2.4l-3.2,8.8h-2.7l-3.2-8.8H129.6z"/>
			<path class="st2" d="M141.4,54.1c-2.6,0-4.4-1.8-4.4-4.5c0-2.8,1.8-4.5,4.4-4.5c2.5,0,4.3,1.7,4.3,4.3c0,0.3,0,0.6-0.1,0.8h-6.4
				c0.1,1.3,1,2,2.1,2c0.9,0,1.5-0.5,1.8-1.1h2.4C145,52.8,143.6,54.1,141.4,54.1z M139.3,48.7h4.2c0-1.2-0.9-1.9-2.1-1.9
				C140.3,46.8,139.5,47.5,139.3,48.7z"/>
			<path class="st2" d="M150.8,45c1.1,0,2.3,0.5,2.9,1.4v-4.2h2.2v11.7h-2.2v-1.3c-0.5,0.8-1.5,1.4-2.9,1.4c-2.2,0-4-1.8-4-4.5
				C146.8,46.8,148.6,45,150.8,45z M151.4,47c-1.2,0-2.3,0.9-2.3,2.5s1.1,2.6,2.3,2.6s2.3-0.9,2.3-2.6S152.6,47,151.4,47z"/>
		</g>
		<g>
			<path class="st2" d="M24,17.4c0.8,0.9,1.2,2,1.2,3.3c0,1.1-0.3,2.1-0.9,3c-0.6,0.9-1.5,1.6-2.6,2.2s-2.6,0.8-4.4,0.8
				c-1.3,0-2.5-0.2-3.8-0.5c-1.2-0.3-2.3-0.7-3.2-1.3l1.9-3.8c0.7,0.5,1.5,0.9,2.4,1.1c0.9,0.3,1.8,0.4,2.6,0.4
				c0.9,0,1.6-0.2,2.1-0.5c0.5-0.3,0.8-0.8,0.8-1.4c0-1.2-0.9-1.8-2.8-1.8h-2.1v-3.2l3.2-3.5h-7.1V8.3h13v3.2l-3.7,4
				C22,15.9,23.2,16.5,24,17.4z"/>
			<path class="st2" d="M30.7,25.6c-1.2-0.7-2.1-1.8-2.8-3.2c-0.7-1.4-1-3.1-1-5c0-1.9,0.3-3.6,1-5c0.7-1.4,1.6-2.5,2.8-3.2
				C31.9,8.4,33.3,8,34.8,8c1.5,0,2.9,0.4,4.1,1.1c1.2,0.7,2.1,1.8,2.8,3.2c0.7,1.4,1,3.1,1,5c0,1.9-0.3,3.6-1,5
				c-0.7,1.4-1.6,2.5-2.8,3.2c-1.2,0.7-2.6,1.1-4.1,1.1C33.3,26.7,31.9,26.4,30.7,25.6z M36.8,21.3c0.5-0.8,0.8-2.2,0.8-4
				c0-1.8-0.3-3.1-0.8-4s-1.2-1.2-2-1.2c-0.9,0-1.6,0.4-2.1,1.2c-0.5,0.8-0.8,2.2-0.8,4c0,1.8,0.3,3.1,0.8,4
				c0.5,0.8,1.2,1.2,2.1,1.2C35.7,22.6,36.3,22.1,36.8,21.3z"/>
			<path class="st2" d="M49,21.6c0.5,0.5,0.8,1.2,0.8,2.1c0,0.4-0.1,0.8-0.2,1.2c-0.1,0.4-0.3,1-0.7,1.8l-1.6,3.8h-3.1l1.2-4.2
				c-0.5-0.2-0.9-0.6-1.1-1c-0.3-0.4-0.4-0.9-0.4-1.5c0-0.9,0.3-1.6,0.8-2.1c0.5-0.5,1.3-0.8,2.1-0.8C47.7,20.8,48.4,21.1,49,21.6z"
				/>
			<path class="st2" d="M66.5,18.6c0.4,0.7,0.7,1.5,0.7,2.4c0,1.1-0.3,2.1-1,3c-0.7,0.9-1.6,1.5-2.8,2c-1.2,0.5-2.5,0.7-4.1,0.7
				c-1.5,0-2.9-0.2-4.1-0.7c-1.2-0.5-2.1-1.1-2.8-2s-1-1.9-1-3c0-0.9,0.2-1.7,0.7-2.4c0.4-0.7,1.1-1.3,1.9-1.8
				c-0.6-0.4-1.1-1-1.4-1.6c-0.3-0.6-0.5-1.3-0.5-2.1c0-1,0.3-2,0.9-2.8c0.6-0.8,1.4-1.4,2.5-1.8C56.7,8.2,58,8,59.4,8
				c1.4,0,2.7,0.2,3.7,0.6c1.1,0.4,1.9,1,2.5,1.8c0.6,0.8,0.9,1.7,0.9,2.8c0,0.8-0.2,1.4-0.5,2.1s-0.8,1.1-1.4,1.6
				C65.5,17.3,66.1,17.9,66.5,18.6z M61.4,22.5c0.5-0.4,0.7-0.9,0.7-1.6c0-0.7-0.2-1.2-0.7-1.6s-1.1-0.6-2-0.6c-0.8,0-1.5,0.2-2,0.6
				s-0.7,0.9-0.7,1.6c0,0.7,0.2,1.2,0.7,1.6s1.1,0.6,2,0.6C60.2,23.2,60.9,23,61.4,22.5z M57.8,12.1c-0.4,0.3-0.6,0.8-0.6,1.4
				c0,0.6,0.2,1,0.6,1.4c0.4,0.3,0.9,0.5,1.6,0.5c0.7,0,1.2-0.2,1.6-0.5c0.4-0.3,0.6-0.8,0.6-1.4c0-0.6-0.2-1.1-0.6-1.4
				c-0.4-0.3-0.9-0.5-1.6-0.5C58.8,11.6,58.2,11.7,57.8,12.1z"/>
			<path class="st2" d="M82.8,22.3v4h-14v-3.2l6.7-6.3c0.7-0.6,1.1-1.1,1.3-1.6c0.2-0.4,0.3-0.9,0.3-1.3c0-0.6-0.2-1-0.6-1.4
				c-0.4-0.3-1-0.5-1.7-0.5c-0.7,0-1.3,0.2-1.8,0.5c-0.6,0.3-1,0.7-1.4,1.3l-3.8-2.1c0.7-1.2,1.7-2.1,3-2.8c1.3-0.7,2.8-1,4.5-1
				c1.4,0,2.6,0.2,3.6,0.7c1.1,0.4,1.9,1.1,2.5,1.9c0.6,0.8,0.9,1.8,0.9,2.9c0,1-0.2,1.9-0.6,2.8c-0.4,0.9-1.2,1.9-2.4,2.9l-3.4,3.1
				H82.8z"/>
			<path class="st2" d="M89.4,21.6c0.5,0.5,0.8,1.2,0.8,2.1c0,0.4-0.1,0.8-0.2,1.2c-0.1,0.4-0.3,1-0.7,1.8l-1.6,3.8h-3.1l1.2-4.2
				c-0.5-0.2-0.9-0.6-1.1-1c-0.3-0.4-0.4-0.9-0.4-1.5c0-0.9,0.3-1.6,0.8-2.1c0.5-0.5,1.3-0.8,2.1-0.8C88.2,20.8,88.9,21.1,89.4,21.6
				z"/>
			<path class="st2" d="M104.2,16.5c1.2,1,1.8,2.4,1.8,4.1c0,1.1-0.3,2.1-0.9,3.1s-1.5,1.7-2.6,2.2c-1.2,0.6-2.6,0.8-4.4,0.8
				c-1.3,0-2.5-0.2-3.8-0.5c-1.2-0.3-2.3-0.7-3.2-1.3l1.8-3.8c0.7,0.5,1.5,0.9,2.4,1.1c0.9,0.3,1.7,0.4,2.6,0.4
				c0.9,0,1.6-0.2,2.1-0.5c0.5-0.3,0.8-0.8,0.8-1.4c0-0.6-0.3-1.1-0.8-1.4c-0.5-0.3-1.4-0.5-2.7-0.5h-4.9l0.9-10.5h11.5v3.9h-7.3
				l-0.2,2.6h1.2C101.1,14.9,103,15.4,104.2,16.5z"/>
			<path class="st2" d="M119.8,15.6c0.9,0.5,1.7,1.1,2.3,2c0.6,0.9,0.8,1.9,0.8,3c0,1.2-0.3,2.3-0.9,3.2c-0.6,0.9-1.5,1.7-2.5,2.2
				c-1.1,0.5-2.3,0.8-3.6,0.8c-2.6,0-4.6-0.8-6.1-2.3c-1.5-1.5-2.2-3.7-2.2-6.6c0-2.1,0.4-3.8,1.2-5.3c0.8-1.5,1.9-2.6,3.4-3.4
				c1.4-0.8,3.1-1.2,5-1.2c1,0,2,0.1,2.9,0.3c0.9,0.2,1.7,0.5,2.4,1l-1.9,3.7c-0.9-0.6-2-0.9-3.3-0.9c-1.3,0-2.4,0.4-3.2,1.1
				c-0.8,0.7-1.3,1.8-1.4,3.1c1-0.9,2.4-1.3,4.1-1.3C117.8,14.9,118.9,15.1,119.8,15.6z M117.3,22.5c0.5-0.4,0.7-1,0.7-1.7
				c0-0.7-0.2-1.2-0.7-1.6s-1.1-0.6-1.8-0.6s-1.3,0.2-1.8,0.6c-0.5,0.4-0.7,1-0.7,1.7c0,0.7,0.2,1.2,0.7,1.6s1.1,0.6,1.8,0.6
				C116.2,23.1,116.8,22.9,117.3,22.5z"/>
			<path class="st2" d="M136.9,10.3c1.5,1.5,2.2,3.7,2.2,6.6c0,2.1-0.4,3.8-1.2,5.3c-0.8,1.5-1.9,2.6-3.4,3.4
				c-1.5,0.8-3.1,1.2-5,1.2c-1,0-2-0.1-2.9-0.3c-0.9-0.2-1.7-0.6-2.4-1l1.9-3.7c0.9,0.6,2,0.9,3.3,0.9c1.3,0,2.3-0.4,3.1-1.1
				c0.8-0.7,1.3-1.7,1.4-3.1c-1,0.9-2.4,1.3-4,1.3c-1.1,0-2.2-0.2-3.1-0.7c-0.9-0.5-1.7-1.1-2.3-2c-0.6-0.9-0.8-1.9-0.8-3
				c0-1.2,0.3-2.3,0.9-3.2c0.6-0.9,1.5-1.7,2.5-2.2c1.1-0.5,2.3-0.8,3.6-0.8C133.4,8,135.4,8.7,136.9,10.3z M133,15.5
				c0.5-0.4,0.7-1,0.7-1.7c0-0.7-0.2-1.2-0.7-1.6c-0.5-0.4-1.1-0.6-1.8-0.6c-0.7,0-1.3,0.2-1.8,0.6c-0.5,0.4-0.7,1-0.7,1.7
				c0,0.7,0.2,1.2,0.7,1.6c0.5,0.4,1.1,0.6,1.8,0.6S132.5,16,133,15.5z"/>
		</g>
	</g>
</g>
</svg>
